# xmcd CD database file
#
# Track frame offsets:
#	150
#	34445
#	68251
#	102787
#	121908
#	142254
#	170554
#	198978
#	223416
#	244804
#	278366
#	306425
#	328530
#
# Disc length: 4774 seconds
#
# Revision: 0
# Processed by: cddbd v1.5.2PL0 Copyright (c) Steve Scherf et al.
# Submitted via: CDex 1.70beta2
#
DISCID=c312a40d
DTITLE=Various Artist - Essential Blue -Modern Luxury-
DYEAR=2007
DGENRE=Jazz
TTITLE0=McCoy Tyner/Utoopia
TTITLE1=Wayne Shoter/Footprints
TTITLE2=Herbie Hancock/Succotash
TTITLE3=Chico Hamilton/Abdullah And Abraham
TTITLE4=Moacir Santos/Kamba
TTITLE5=Andrew Hill/Mira
TTITLE6=Curtis Fuller/Little Messenger
TTITLE7=Jack Wilson/On Children
TTITLE8=Stanley Turrentine/Meat Wave
TTITLE9=Blue Mitchell/On Shirt
TTITLE10=Donald Byrd/The Loner
TTITLE11=Horace Silver/Friends
TTITLE12=Gene Harris/Theme For Relana
EXTD=YEAR: 2007
EXTT0=
EXTT1=
EXTT2=
EXTT3=
EXTT4=
EXTT5=
EXTT6=
EXTT7=
EXTT8=
EXTT9=
EXTT10=
EXTT11=
EXTT12=
PLAYORDER=
